<?xml version="1.0" encoding="utf-8"?>
<!-- Generator: Adobe Illustrator 22.1.0, SVG Export Plug-In . SVG Version: 6.00 Build 0)  -->
<svg version="1.1" id="Layer_1" xmlns="http://www.w3.org/2000/svg" xmlns:xlink="http://www.w3.org/1999/xlink" x="0px" y="0px"
	 viewBox="0 0 80.7 40.7" style="enable-background:new 0 0 80.7 40.7;" xml:space="preserve">
<style type="text/css">
	.st0{fill:none;stroke:#000000;stroke-miterlimit:10;}
</style>
<path d="M65.2,9.7c-1.9,0-3.8,0.4-5.5,1l-3.6-8.8l4.2-0.8l-0.2-1l-7,1.3l0.2,1l1.8-0.3l2.1,5.1L29.2,8.7l-3.8-4.9
	c1.2-0.1,2.4-0.2,3.7-0.4c0.8-0.1,2.6-0.2,2.6-1.4c0-0.3-0.7-0.3-1-0.3c0,0-4.9,0.4-8.9-1.2c-0.5-0.2-1.1-0.5-1.7-0.5
	c-1.3,0.1-0.9,2.2-0.1,2.7c1.2,0.7,2.7,1,4.1,1l4.2,5.4L25.1,13c-2.6-2.1-6-3.3-9.6-3.3C7,9.7,0,16.7,0,25.2s7,15.5,15.5,15.5
	c8.5,0,15.3-6.8,15.5-15.2l10-0.2c0.1,0,0.3-0.1,0.3-0.2L57.8,8.6l1,2.5c-5.4,2.4-9.1,7.8-9.1,14.1c0,8.5,7,15.5,15.5,15.5
	s15.5-7,15.5-15.5S73.8,9.7,65.2,9.7z M25.2,14.5c2.8,2.5,4.6,6.1,4.8,10l-13.4,0.2L25.2,14.5z M15.5,39.7C7.5,39.7,1,33.2,1,25.2
	s6.5-14.5,14.5-14.5c3.4,0,6.5,1.2,8.9,3.1l-9.3,11.1C15,25,15,25.2,15,25.4c0.1,0.2,0.3,0.3,0.5,0.3c0,0,0,0,0,0L30,25.5
	C29.8,33.4,23.4,39.7,15.5,39.7z M31,24.5c-0.2-4.3-2.1-8.1-5.1-10.8L29,10l11,14.4L31,24.5z M41,24.1L29.9,9.6l26.8-1.4L41,24.1z
	 M65.2,39.7c-8,0-14.5-6.5-14.5-14.5c0-5.8,3.5-10.9,8.5-13.2l5.6,13.7l0.9-0.4l-5.6-13.7c1.6-0.6,3.3-0.9,5.1-0.9
	c8,0,14.5,6.5,14.5,14.5S73.2,39.7,65.2,39.7z"/>
<g>
	<g>
		<path class="st0" d="M143.7,5c0-2.8,3.7-5,8.2-5s8.2,2.2,8.2,5c0-2.8-3.7-5-8.2-5S143.7,2.2,143.7,5c0,4.5,3.7,14.4,8.2,14.4
			s8.2-10,8.2-14.4"/>
		<circle class="st0" cx="151.9" cy="5.8" r="3"/>
	</g>
	<g>
		<g>
			<path d="M145.7,24.7c-0.7,1.2-1.8,2.2-3,3.1c-1.1,0.9-2.3,1.7-3.5,2.5c-2.4,1.6-5,2.9-7.6,4.2c-2.6,1.3-5.2,2.4-7.9,3.6
				c-2.7,1.1-5.4,2.1-8.1,3.2l-0.3-0.9c2.7-0.9,5.4-1.9,8.1-2.9c2.7-1,5.3-2.1,8-3.3c2.6-1.2,5.2-2.5,7.6-4c1.2-0.8,2.4-1.5,3.6-2.4
				C143.8,26.8,144.9,25.9,145.7,24.7z"/>
		</g>
		<g>
			<path d="M158.2,24.7c0.8,1.2,1.9,2.2,3,3c1.1,0.9,2.3,1.7,3.6,2.4c2.5,1.5,5,2.7,7.6,4c2.6,1.2,5.3,2.3,8,3.3
				c2.7,1,5.4,2,8.1,2.9l-0.3,0.9c-2.7-1-5.4-2-8.1-3.2c-2.7-1.1-5.3-2.3-7.9-3.6c-2.6-1.3-5.1-2.6-7.6-4.2
				c-1.2-0.8-2.4-1.6-3.5-2.5C160,26.9,158.9,25.9,158.2,24.7z"/>
		</g>
	</g>
</g>
<path d="M260.1,19v-1.8l-2.4-0.6c-0.1-0.7-0.1-1.4-0.3-2l2-1.4l-0.6-1.7l-2.4,0.2c-0.3-0.6-0.6-1.3-0.9-1.9l1.5-1.9L256,6.6
	l-2.1,0.9c-0.5-0.5-1-1-1.5-1.5l0.8-2.2l-1.5-1.1L250,4.2c-0.6-0.4-1.3-0.7-1.9-1l0.1-2.3l-1.7-0.6l-1.2,1.9
	c-0.7-0.2-1.4-0.3-2.2-0.4l-0.6-2.2h-1.8l-0.5,2.2c-0.7,0.1-1.5,0.2-2.2,0.4l-1.3-1.9L235,0.9l0.2,2.2c-0.7,0.3-1.3,0.6-1.9,1
	l-1.8-1.4L230,3.8l0.9,2.1c-0.5,0.5-1,1-1.5,1.5l-2.2-0.8l-1.1,1.5l1.5,1.8c-0.3,0.6-0.7,1.2-0.9,1.9l-2.4-0.1l-0.6,1.7l2.1,1.3
	c-0.1,0.7-0.2,1.3-0.3,2l-2.4,0.7v1.8l2.5,0.6c0.1,0.7,0.2,1.3,0.3,1.9l-2.2,1.4l0.6,1.7l2.6-0.2c0.3,0.6,0.6,1.1,0.9,1.7l-1.7,2.1
	l1.1,1.5l2.5-1c0.4,0.4,0.8,0.9,1.3,1.3l-0.9,2.6l1.5,1.1l2.1-1.8c0.5,0.3,1,0.6,1.6,0.8l-0.1,2.8l1.7,0.6l1.4-2.4
	c0.6,0.1,1.2,0.2,1.7,0.3l0.8,2.7h1.8l0.6-2.7c0.6-0.1,1.2-0.2,1.7-0.3l1.6,2.3l1.7-0.6l-0.2-2.7c0.5-0.2,1.1-0.5,1.6-0.8l2.2,1.7
	l1.5-1.1l-1.1-2.5c0.5-0.4,0.9-0.8,1.3-1.3l2.6,0.9l1.1-1.5l-1.7-2c0.3-0.5,0.6-1.1,0.9-1.7l2.6,0.1l0.6-1.7l-2.2-1.3
	c0.1-0.6,0.3-1.3,0.3-1.9L260.1,19z M255.1,18c0,1.3-0.2,2.6-0.5,3.8l-9.4-3c0-0.1,0-0.3,0-0.4s0-0.3,0-0.4l9.5-3.1
	C255,15.7,255.1,16.8,255.1,18z M228.1,18c0-1.1,0.2-2.2,0.4-3.3l9.5,3.1c0,0.1,0,0.3,0,0.4s0,0.3,0,0.4l-9.4,3
	C228.3,20.5,228.1,19.3,228.1,18z M254.3,13.4l-9.5,3.1c-0.1-0.3-0.3-0.5-0.5-0.7l6-8.2C252.1,9.1,253.5,11.1,254.3,13.4z
	 M249.1,6.7l-6,8.2c-0.3-0.1-0.6-0.2-0.9-0.3V4.5C244.8,4.6,247.2,5.4,249.1,6.7z M241,4.5v10.2c-0.3,0.1-0.6,0.2-0.9,0.3l-6-8.2
	C236.1,5.4,238.4,4.6,241,4.5z M233,7.5l6,8.2c-0.2,0.2-0.4,0.5-0.5,0.7l-9.5-3.1C229.8,11.1,231.2,9.1,233,7.5z M229.1,23l9.3-3
	c0.1,0.3,0.3,0.5,0.5,0.7l-5.7,7.9C231.5,27.1,230,25.2,229.1,23z M234.4,29.3l5.7-7.8c0.3,0.1,0.6,0.2,0.9,0.3v9.6
	C238.6,31.3,236.3,30.6,234.4,29.3z M242.3,31.4v-9.6c0.3-0.1,0.6-0.2,0.9-0.3l5.7,7.8C247,30.6,244.7,31.3,242.3,31.4z M250,28.5
	l-5.7-7.9c0.2-0.2,0.4-0.5,0.5-0.7l9.3,3C253.3,25.2,251.8,27.1,250,28.5z"/>
</svg>
