<?xml version="1.0" encoding="utf-8"?>
<!-- Generator: Adobe Illustrator 22.1.0, SVG Export Plug-In . SVG Version: 6.00 Build 0)  -->
<svg version="1.1" id="Layer_1" xmlns="http://www.w3.org/2000/svg" xmlns:xlink="http://www.w3.org/1999/xlink" x="0px" y="0px"
	 viewBox="0 0 72.8 41.7" style="enable-background:new 0 0 72.8 41.7;" xml:space="preserve">
<style type="text/css">
	.st0{fill:none;stroke:#000000;stroke-miterlimit:10;}
</style>
<path d="M-50.3,10.2c-1.9,0-3.8,0.4-5.5,1l-3.6-8.8l4.2-0.8l-0.2-1l-7,1.3l0.2,1l1.8-0.3l2.1,5.1l-28.1,1.4l-3.8-4.9
	c1.2-0.1,2.4-0.2,3.7-0.4c0.8-0.1,2.6-0.2,2.6-1.4c0-0.3-0.7-0.3-1-0.3c0,0-4.9,0.4-8.9-1.2c-0.5-0.2-1.1-0.5-1.7-0.5
	c-1.3,0.1-0.9,2.2-0.1,2.7c1.2,0.7,2.7,1,4.1,1l4.2,5.4l-3.3,3.9c-2.6-2.1-6-3.3-9.6-3.3c-8.5,0-15.5,7-15.5,15.5s7,15.5,15.5,15.5
	c8.5,0,15.3-6.8,15.5-15.2l10-0.2c0.1,0,0.3-0.1,0.3-0.2l16.5-16.6l1,2.5c-5.4,2.4-9.1,7.8-9.1,14.1c0,8.5,7,15.5,15.5,15.5
	s15.5-7,15.5-15.5S-41.7,10.2-50.3,10.2z M-90.3,15c2.8,2.5,4.6,6.1,4.8,10l-13.4,0.2L-90.3,15z M-100,40.2c-8,0-14.5-6.5-14.5-14.5
	s6.5-14.5,14.5-14.5c3.4,0,6.5,1.2,8.9,3.1l-9.3,11.1c-0.1,0.1-0.2,0.4-0.1,0.5c0.1,0.2,0.3,0.3,0.5,0.3c0,0,0,0,0,0l14.5-0.2
	C-85.7,33.9-92.1,40.2-100,40.2z M-84.5,25c-0.2-4.3-2.1-8.1-5.1-10.8l3.1-3.7l11,14.4L-84.5,25z M-74.5,24.6l-11.1-14.4l26.8-1.4
	L-74.5,24.6z M-50.3,40.2c-8,0-14.5-6.5-14.5-14.5c0-5.8,3.5-10.9,8.5-13.2l5.6,13.7l0.9-0.4l-5.6-13.7c1.6-0.6,3.3-0.9,5.1-0.9
	c8,0,14.5,6.5,14.5,14.5S-42.3,40.2-50.3,40.2z"/>
<g>
	<g>
		<path class="st0" d="M28.3,5.5c0-2.8,3.7-5,8.2-5s8.2,2.2,8.2,5c0-2.8-3.7-5-8.2-5S28.3,2.7,28.3,5.5c0,4.5,3.7,14.4,8.2,14.4
			s8.2-9.9,8.2-14.4"/>
		<circle class="st0" cx="36.4" cy="6.4" r="3"/>
	</g>
	<g>
		<g>
			<path d="M30.2,25.2c-0.7,1.2-1.8,2.2-2.9,3.1c-1.1,0.9-2.3,1.7-3.5,2.5c-2.4,1.6-5,2.9-7.5,4.2c-2.6,1.3-5.2,2.4-7.9,3.5
				c-2.7,1.1-5.3,2.1-8,3.2L0,40.7c2.7-0.9,5.4-1.9,8.1-2.9c2.7-1,5.3-2.1,7.9-3.3c2.6-1.2,5.2-2.5,7.6-3.9c1.2-0.8,2.4-1.5,3.6-2.4
				C28.3,27.3,29.4,26.4,30.2,25.2z"/>
		</g>
		<g>
			<path d="M42.6,25.2c0.8,1.2,1.9,2.1,3,3c1.1,0.9,2.3,1.6,3.6,2.4c2.5,1.5,5,2.7,7.6,3.9c2.6,1.2,5.3,2.3,7.9,3.3
				c2.7,1,5.4,2,8.1,2.9l-0.3,0.9c-2.7-1-5.4-2-8-3.2c-2.7-1.1-5.3-2.3-7.9-3.5c-2.6-1.3-5.1-2.6-7.5-4.2c-1.2-0.8-2.4-1.6-3.5-2.5
				C44.5,27.4,43.4,26.4,42.6,25.2z"/>
		</g>
	</g>
</g>
<path d="M146.5,19.6v-2l-2.7-0.6c-0.1-0.7-0.2-1.5-0.3-2.2l2.2-1.5l-0.6-1.9l-2.6,0.2c-0.3-0.7-0.6-1.4-1-2.1l1.6-2.1L142,5.9
	l-2.4,1c-0.5-0.6-1.1-1.2-1.7-1.7l0.9-2.4l-1.6-1.2l-1.9,1.6c-0.7-0.4-1.4-0.8-2.1-1.1l0.1-2.5L131.4-1l-1.3,2.1
	c-0.8-0.2-1.6-0.3-2.4-0.4L127-1.6h-2l-0.6,2.4c-0.8,0.1-1.6,0.2-2.4,0.4l-1.4-2.1l-1.9,0.6l0.2,2.5c-0.7,0.3-1.4,0.7-2.1,1.1
	l-2-1.6l-1.6,1.2l1,2.3c-0.6,0.5-1.1,1.1-1.7,1.7L110.2,6L109,7.6l1.7,2c-0.4,0.7-0.7,1.3-1,2.1l-2.7-0.1l-0.6,1.9l2.3,1.4
	c-0.1,0.7-0.2,1.5-0.3,2.2l-2.7,0.8v2l2.7,0.6c0.1,0.7,0.2,1.4,0.4,2.1l-2.4,1.6l0.6,1.9l2.9-0.2c0.3,0.6,0.6,1.2,1,1.8l-1.8,2.3
	l1.2,1.6l2.7-1.1c0.5,0.5,0.9,1,1.4,1.4l-1,2.8l1.6,1.2l2.3-2c0.6,0.3,1.1,0.6,1.8,0.9l-0.1,3.1l1.9,0.6l1.6-2.6
	c0.6,0.1,1.3,0.2,1.9,0.3l0.8,3h2l0.7-3c0.7-0.1,1.3-0.2,1.9-0.3l1.7,2.6l1.9-0.6l-0.2-3c0.6-0.3,1.2-0.6,1.8-0.9l2.4,1.9l1.6-1.2
	l-1.2-2.8c0.5-0.4,1-0.9,1.4-1.4l2.8,1l1.2-1.6l-1.9-2.2c0.4-0.6,0.7-1.2,1-1.8l2.9,0.1l0.6-1.9l-2.4-1.5c0.2-0.7,0.3-1.4,0.4-2.1
	L146.5,19.6z M141,18.4c0,1.4-0.2,2.8-0.6,4.1l-10.3-3.4c0-0.2,0-0.3,0-0.5s0-0.3,0-0.5l10.5-3.4C140.8,16,141,17.2,141,18.4z
	 M111.3,18.4c0-1.2,0.2-2.4,0.5-3.6l10.5,3.4c0,0.2,0,0.3,0,0.5s0,0.3,0,0.5l-10.3,3.4C111.5,21.2,111.3,19.9,111.3,18.4z
	 M140.1,13.4l-10.5,3.4c-0.2-0.3-0.3-0.6-0.6-0.8l6.6-9C137.6,8.6,139.2,10.9,140.1,13.4z M134.4,6.1l-6.6,9
	c-0.3-0.1-0.6-0.2-0.9-0.3V3.6C129.7,3.7,132.2,4.6,134.4,6.1z M125.4,3.6v11.2c-0.3,0.1-0.6,0.2-0.9,0.3l-6.6-9
	C120,4.6,122.6,3.7,125.4,3.6z M116.7,7l6.6,9c-0.2,0.2-0.4,0.5-0.6,0.8l-10.5-3.4C113.1,10.9,114.6,8.6,116.7,7z M112.4,24
	l10.3-3.3c0.2,0.3,0.3,0.6,0.6,0.8l-6.3,8.6C114.9,28.5,113.3,26.4,112.4,24z M118.2,31l6.3-8.6c0.3,0.1,0.6,0.2,0.9,0.3v10.6
	C122.7,33.1,120.3,32.3,118.2,31z M126.9,33.2V22.6c0.3-0.1,0.6-0.2,0.9-0.3l6.3,8.6C132,32.3,129.5,33.1,126.9,33.2z M135.3,30.1
	l-6.3-8.6c0.2-0.2,0.4-0.5,0.6-0.8l10.3,3.3C138.9,26.4,137.3,28.5,135.3,30.1z"/>
</svg>
