<?xml version="1.0" encoding="utf-8"?>
<!-- Generator: Adobe Illustrator 22.1.0, SVG Export Plug-In . SVG Version: 6.00 Build 0)  -->
<svg version="1.1" id="Layer_1" xmlns="http://www.w3.org/2000/svg" xmlns:xlink="http://www.w3.org/1999/xlink" x="0px" y="0px"
	 viewBox="0 0 40.7 40.7" style="enable-background:new 0 0 40.7 40.7;" xml:space="preserve">
<style type="text/css">
	.st0{fill:none;stroke:#000000;stroke-miterlimit:10;}
</style>
<path d="M-156.1,11.8c-1.9,0-3.8,0.4-5.5,1l-3.6-8.8l4.2-0.8l-0.2-1l-7,1.3l0.2,1l1.8-0.3l2.1,5.1l-28.1,1.4l-3.8-4.9
	c1.2-0.1,2.4-0.2,3.7-0.4c0.8-0.1,2.6-0.2,2.6-1.4c0-0.3-0.7-0.3-1-0.3c0,0-4.9,0.4-8.9-1.2c-0.5-0.2-1.1-0.5-1.7-0.5
	c-1.3,0.1-0.9,2.2-0.1,2.7c1.2,0.7,2.7,1,4.1,1l4.2,5.4l-3.3,3.9c-2.6-2.1-6-3.3-9.6-3.3c-8.5,0-15.5,7-15.5,15.5s7,15.5,15.5,15.5
	c8.5,0,15.3-6.8,15.5-15.2l10-0.2c0.1,0,0.3-0.1,0.3-0.2l16.5-16.6l1,2.5c-5.4,2.4-9.1,7.8-9.1,14.1c0,8.5,7,15.5,15.5,15.5
	s15.5-7,15.5-15.5S-147.5,11.8-156.1,11.8z M-196.1,16.6c2.8,2.5,4.6,6.1,4.8,10l-13.4,0.2L-196.1,16.6z M-205.8,41.8
	c-8,0-14.5-6.5-14.5-14.5s6.5-14.5,14.5-14.5c3.4,0,6.5,1.2,8.9,3.1l-9.3,11.1c-0.1,0.1-0.2,0.4-0.1,0.5c0.1,0.2,0.3,0.3,0.5,0.3
	c0,0,0,0,0,0l14.5-0.2C-191.5,35.5-197.9,41.8-205.8,41.8z M-190.3,26.6c-0.2-4.3-2.1-8.1-5.1-10.8l3.1-3.7l11,14.4L-190.3,26.6z
	 M-180.2,26.2l-11.1-14.4l26.8-1.4L-180.2,26.2z M-156.1,41.8c-8,0-14.5-6.5-14.5-14.5c0-5.8,3.5-10.9,8.5-13.2l5.6,13.7l0.9-0.4
	l-5.6-13.7c1.6-0.6,3.3-0.9,5.1-0.9c8,0,14.5,6.5,14.5,14.5S-148.1,41.8-156.1,41.8z"/>
<g>
	<g>
		<path class="st0" d="M-77.5,7.1c0-2.8,3.7-5,8.2-5s8.2,2.2,8.2,5c0-2.8-3.7-5-8.2-5S-77.5,4.4-77.5,7.1c0,4.5,3.7,14.4,8.2,14.4
			s8.2-9.9,8.2-14.4"/>
		<circle class="st0" cx="-69.4" cy="8" r="3"/>
	</g>
	<g>
		<g>
			<path d="M-75.6,26.8c-0.7,1.2-1.8,2.2-2.9,3.1c-1.1,0.9-2.3,1.7-3.5,2.5c-2.4,1.6-5,2.9-7.5,4.2c-2.6,1.3-5.2,2.4-7.9,3.5
				c-2.7,1.1-5.3,2.1-8,3.2l-0.3-0.9c2.7-0.9,5.4-1.9,8.1-2.9c2.7-1,5.3-2.1,7.9-3.3c2.6-1.2,5.2-2.5,7.6-3.9
				c1.2-0.8,2.4-1.5,3.6-2.4C-77.5,28.9-76.3,28-75.6,26.8z"/>
		</g>
		<g>
			<path d="M-63.2,26.8c0.8,1.2,1.9,2.1,3,3c1.1,0.9,2.3,1.6,3.6,2.4c2.5,1.5,5,2.7,7.6,3.9c2.6,1.2,5.3,2.3,7.9,3.3
				c2.7,1,5.4,2,8.1,2.9l-0.3,0.9c-2.7-1-5.4-2-8-3.2c-2.7-1.1-5.3-2.3-7.9-3.5c-2.6-1.3-5.1-2.6-7.5-4.2c-1.2-0.8-2.4-1.6-3.5-2.5
				C-61.3,29-62.4,28-63.2,26.8z"/>
		</g>
	</g>
</g>
<path d="M40.7,21.3v-2L38,18.7c-0.1-0.7-0.2-1.5-0.3-2.2l2.2-1.5L39.4,13l-2.6,0.2c-0.3-0.7-0.6-1.4-1-2.1l1.6-2.1l-1.2-1.6l-2.4,1
	c-0.5-0.6-1.1-1.2-1.7-1.7l0.9-2.4l-1.6-1.2l-1.9,1.6c-0.7-0.4-1.4-0.8-2.1-1.1l0.1-2.5l-1.9-0.6l-1.3,2.1c-0.8-0.2-1.6-0.3-2.4-0.4
	L21.3,0h-2l-0.6,2.4c-0.8,0.1-1.6,0.2-2.4,0.4l-1.4-2.1L13,1.3l0.2,2.5c-0.7,0.3-1.4,0.7-2.1,1.1l-2-1.6L7.5,4.5l1,2.3
	C7.9,7.4,7.4,7.9,6.8,8.5L4.4,7.6L3.3,9.3l1.7,2c-0.4,0.7-0.7,1.3-1,2.1l-2.7-0.1l-0.6,1.9L3,16.5c-0.1,0.7-0.2,1.5-0.3,2.2L0,19.4
	v2l2.7,0.6c0.1,0.7,0.2,1.4,0.4,2.1l-2.4,1.6l0.6,1.9l2.9-0.2c0.3,0.6,0.6,1.2,1,1.8l-1.8,2.3l1.2,1.6L7.3,32c0.5,0.5,0.9,1,1.4,1.4
	l-1,2.8l1.6,1.2l2.3-2c0.6,0.3,1.1,0.6,1.8,0.9l-0.1,3.1l1.9,0.6l1.6-2.6c0.6,0.1,1.3,0.2,1.9,0.3l0.8,3h2l0.7-3
	c0.7-0.1,1.3-0.2,1.9-0.3l1.7,2.6l1.9-0.6l-0.2-3c0.6-0.3,1.2-0.6,1.8-0.9l2.4,1.9l1.6-1.2L32,33.4c0.5-0.4,1-0.9,1.4-1.4l2.8,1
	l1.2-1.6l-1.9-2.2c0.4-0.6,0.7-1.2,1-1.8l2.9,0.1l0.6-1.9l-2.4-1.5c0.2-0.7,0.3-1.4,0.4-2.1L40.7,21.3z M35.2,20.1
	c0,1.4-0.2,2.8-0.6,4.1l-10.3-3.4c0-0.2,0-0.3,0-0.5c0-0.2,0-0.3,0-0.5l10.5-3.4C35.1,17.6,35.2,18.8,35.2,20.1z M5.5,20.1
	c0-1.2,0.2-2.4,0.5-3.6l10.5,3.4c0,0.2,0,0.3,0,0.5c0,0.2,0,0.3,0,0.5L6.1,24.2C5.7,22.9,5.5,21.5,5.5,20.1z M34.3,15l-10.5,3.4
	c-0.2-0.3-0.3-0.6-0.6-0.8l6.6-9C31.9,10.3,33.4,12.5,34.3,15z M28.6,7.7l-6.6,9c-0.3-0.1-0.6-0.2-0.9-0.3V5.2
	C23.9,5.4,26.4,6.3,28.6,7.7z M19.6,5.2v11.2c-0.3,0.1-0.6,0.2-0.9,0.3l-6.6-9C14.3,6.3,16.8,5.4,19.6,5.2z M10.9,8.6l6.6,9
	c-0.2,0.2-0.4,0.5-0.6,0.8L6.4,15C7.3,12.5,8.9,10.3,10.9,8.6z M6.6,25.6l10.3-3.3c0.2,0.3,0.3,0.6,0.6,0.8l-6.3,8.6
	C9.1,30.1,7.6,28,6.6,25.6z M12.4,32.6l6.3-8.6c0.3,0.1,0.6,0.2,0.9,0.3v10.6C17,34.8,14.5,33.9,12.4,32.6z M21.1,34.9V24.3
	c0.3-0.1,0.6-0.2,0.9-0.3l6.3,8.6C26.2,33.9,23.8,34.8,21.1,34.9z M29.6,31.7l-6.3-8.6c0.2-0.2,0.4-0.5,0.6-0.8l10.3,3.3
	C33.2,28,31.6,30.1,29.6,31.7z"/>
</svg>
